<mxfile host="Electron" modified="2024-03-17T12:54:26.787Z" agent="Mozilla/5.0 (Macintosh; Intel Mac OS X 10_15_7) AppleWebKit/537.36 (KHTML, like Gecko) draw.io/23.0.2 Chrome/120.0.6099.109 Electron/28.1.0 Safari/537.36" etag="zqA8JdRQOIo0jYnHFVq4" version="23.0.2" type="device">
  <diagram name="Page-1" id="ccv1DMGGT-wDWlmjZiEh">
    <mxGraphModel dx="1434" dy="907" grid="1" gridSize="10" guides="1" tooltips="1" connect="1" arrows="1" fold="1" page="1" pageScale="1" pageWidth="827" pageHeight="1169" math="0" shadow="0">
      <root>
        <mxCell id="0" />
        <mxCell id="1" parent="0" />
        <mxCell id="Q1rSvpqj_qULE53uYS1T-1" value="Selected Words" style="swimlane;fontStyle=0;childLayout=stackLayout;horizontal=1;startSize=30;horizontalStack=0;resizeParent=1;resizeParentMax=0;resizeLast=0;collapsible=1;marginBottom=0;whiteSpace=wrap;html=1;" vertex="1" parent="1">
          <mxGeometry x="340" y="120" width="100" height="110" as="geometry" />
        </mxCell>
        <mxCell id="Q1rSvpqj_qULE53uYS1T-2" value="Dune" style="text;strokeColor=none;fillColor=none;align=left;verticalAlign=middle;spacingLeft=4;spacingRight=4;overflow=hidden;points=[[0,0.5],[1,0.5]];portConstraint=eastwest;rotatable=0;whiteSpace=wrap;html=1;" vertex="1" parent="Q1rSvpqj_qULE53uYS1T-1">
          <mxGeometry y="30" width="100" height="30" as="geometry" />
        </mxCell>
        <mxCell id="Q1rSvpqj_qULE53uYS1T-3" value="Avatar" style="text;strokeColor=none;fillColor=none;align=left;verticalAlign=middle;spacingLeft=4;spacingRight=4;overflow=hidden;points=[[0,0.5],[1,0.5]];portConstraint=eastwest;rotatable=0;whiteSpace=wrap;html=1;" vertex="1" parent="Q1rSvpqj_qULE53uYS1T-1">
          <mxGeometry y="60" width="100" height="30" as="geometry" />
        </mxCell>
        <mxCell id="Q1rSvpqj_qULE53uYS1T-4" value="..." style="text;strokeColor=none;fillColor=none;align=left;verticalAlign=middle;spacingLeft=4;spacingRight=4;overflow=hidden;points=[[0,0.5],[1,0.5]];portConstraint=eastwest;rotatable=0;whiteSpace=wrap;html=1;" vertex="1" parent="Q1rSvpqj_qULE53uYS1T-1">
          <mxGeometry y="90" width="100" height="20" as="geometry" />
        </mxCell>
        <mxCell id="Q1rSvpqj_qULE53uYS1T-6" value="Sort by length" style="rounded=0;whiteSpace=wrap;html=1;" vertex="1" parent="1">
          <mxGeometry x="331" y="290" width="120" height="20" as="geometry" />
        </mxCell>
        <mxCell id="Q1rSvpqj_qULE53uYS1T-8" value="" style="endArrow=classic;html=1;rounded=0;exitX=0.51;exitY=1;exitDx=0;exitDy=0;exitPerimeter=0;" edge="1" parent="1" source="Q1rSvpqj_qULE53uYS1T-4" target="Q1rSvpqj_qULE53uYS1T-6">
          <mxGeometry width="50" height="50" relative="1" as="geometry">
            <mxPoint x="390" y="490" as="sourcePoint" />
            <mxPoint x="440" y="440" as="targetPoint" />
          </mxGeometry>
        </mxCell>
        <mxCell id="Q1rSvpqj_qULE53uYS1T-9" value="Selected Words" style="swimlane;fontStyle=0;childLayout=stackLayout;horizontal=1;startSize=30;horizontalStack=0;resizeParent=1;resizeParentMax=0;resizeLast=0;collapsible=1;marginBottom=0;whiteSpace=wrap;html=1;" vertex="1" parent="1">
          <mxGeometry x="451" y="290" width="100" height="110" as="geometry" />
        </mxCell>
        <mxCell id="Q1rSvpqj_qULE53uYS1T-10" value="Avatar" style="text;strokeColor=none;fillColor=none;align=left;verticalAlign=middle;spacingLeft=4;spacingRight=4;overflow=hidden;points=[[0,0.5],[1,0.5]];portConstraint=eastwest;rotatable=0;whiteSpace=wrap;html=1;" vertex="1" parent="Q1rSvpqj_qULE53uYS1T-9">
          <mxGeometry y="30" width="100" height="30" as="geometry" />
        </mxCell>
        <mxCell id="Q1rSvpqj_qULE53uYS1T-11" value="Dune" style="text;strokeColor=none;fillColor=none;align=left;verticalAlign=middle;spacingLeft=4;spacingRight=4;overflow=hidden;points=[[0,0.5],[1,0.5]];portConstraint=eastwest;rotatable=0;whiteSpace=wrap;html=1;" vertex="1" parent="Q1rSvpqj_qULE53uYS1T-9">
          <mxGeometry y="60" width="100" height="30" as="geometry" />
        </mxCell>
        <mxCell id="Q1rSvpqj_qULE53uYS1T-12" value="..." style="text;strokeColor=none;fillColor=none;align=left;verticalAlign=middle;spacingLeft=4;spacingRight=4;overflow=hidden;points=[[0,0.5],[1,0.5]];portConstraint=eastwest;rotatable=0;whiteSpace=wrap;html=1;" vertex="1" parent="Q1rSvpqj_qULE53uYS1T-9">
          <mxGeometry y="90" width="100" height="20" as="geometry" />
        </mxCell>
        <mxCell id="Q1rSvpqj_qULE53uYS1T-13" value="Solution Graph" style="swimlane;startSize=20;horizontal=1;containerType=tree;newEdgeStyle={&quot;edgeStyle&quot;:&quot;elbowEdgeStyle&quot;,&quot;startArrow&quot;:&quot;none&quot;,&quot;endArrow&quot;:&quot;none&quot;};strokeWidth=1;" vertex="1" parent="1">
          <mxGeometry x="124" y="460" width="580" height="280" as="geometry" />
        </mxCell>
        <mxCell id="Q1rSvpqj_qULE53uYS1T-14" value="" style="edgeStyle=elbowEdgeStyle;elbow=vertical;sourcePerimeterSpacing=0;targetPerimeterSpacing=0;startArrow=none;endArrow=none;rounded=0;curved=0;" edge="1" parent="Q1rSvpqj_qULE53uYS1T-13" source="Q1rSvpqj_qULE53uYS1T-16" target="Q1rSvpqj_qULE53uYS1T-17">
          <mxGeometry relative="1" as="geometry" />
        </mxCell>
        <mxCell id="Q1rSvpqj_qULE53uYS1T-15" value="" style="edgeStyle=elbowEdgeStyle;elbow=vertical;sourcePerimeterSpacing=0;targetPerimeterSpacing=0;startArrow=none;endArrow=none;rounded=0;curved=0;" edge="1" parent="Q1rSvpqj_qULE53uYS1T-13" source="Q1rSvpqj_qULE53uYS1T-16" target="Q1rSvpqj_qULE53uYS1T-18">
          <mxGeometry relative="1" as="geometry" />
        </mxCell>
        <UserObject label="Empty Node" treeRoot="1" id="Q1rSvpqj_qULE53uYS1T-16">
          <mxCell style="whiteSpace=wrap;html=1;align=center;treeFolding=1;treeMoving=1;newEdgeStyle={&quot;edgeStyle&quot;:&quot;elbowEdgeStyle&quot;,&quot;startArrow&quot;:&quot;none&quot;,&quot;endArrow&quot;:&quot;none&quot;};" vertex="1" parent="Q1rSvpqj_qULE53uYS1T-13">
            <mxGeometry x="220" y="32" width="120" height="20" as="geometry" />
          </mxCell>
        </UserObject>
        <mxCell id="Q1rSvpqj_qULE53uYS1T-17" value="Avatar / Position (0,0)" style="whiteSpace=wrap;html=1;align=center;verticalAlign=middle;treeFolding=1;treeMoving=1;newEdgeStyle={&quot;edgeStyle&quot;:&quot;elbowEdgeStyle&quot;,&quot;startArrow&quot;:&quot;none&quot;,&quot;endArrow&quot;:&quot;none&quot;};" vertex="1" parent="Q1rSvpqj_qULE53uYS1T-13">
          <mxGeometry x="110" y="82" width="100" height="40" as="geometry" />
        </mxCell>
        <mxCell id="Q1rSvpqj_qULE53uYS1T-18" value="Avatar / Position (X,Y)" style="whiteSpace=wrap;html=1;align=center;verticalAlign=middle;treeFolding=1;treeMoving=1;newEdgeStyle={&quot;edgeStyle&quot;:&quot;elbowEdgeStyle&quot;,&quot;startArrow&quot;:&quot;none&quot;,&quot;endArrow&quot;:&quot;none&quot;};" vertex="1" parent="Q1rSvpqj_qULE53uYS1T-13">
          <mxGeometry x="360" y="82" width="100" height="40" as="geometry" />
        </mxCell>
        <mxCell id="Q1rSvpqj_qULE53uYS1T-19" value="..." style="text;html=1;strokeColor=none;fillColor=none;align=center;verticalAlign=middle;whiteSpace=wrap;rounded=0;" vertex="1" parent="Q1rSvpqj_qULE53uYS1T-13">
          <mxGeometry x="260" y="87" width="60" height="30" as="geometry" />
        </mxCell>
        <mxCell id="Q1rSvpqj_qULE53uYS1T-20" value="&lt;font style=&quot;font-size: 9px;&quot;&gt;Avatar / Position (0,0)&lt;br&gt;Dune / Position (X1,Y1)&lt;/font&gt;" style="whiteSpace=wrap;html=1;align=center;verticalAlign=middle;treeFolding=1;treeMoving=1;newEdgeStyle={&quot;edgeStyle&quot;:&quot;elbowEdgeStyle&quot;,&quot;startArrow&quot;:&quot;none&quot;,&quot;endArrow&quot;:&quot;none&quot;};" vertex="1" parent="Q1rSvpqj_qULE53uYS1T-13">
          <mxGeometry x="30" y="147" width="100" height="40" as="geometry" />
        </mxCell>
        <mxCell id="Q1rSvpqj_qULE53uYS1T-21" value="" style="edgeStyle=elbowEdgeStyle;elbow=vertical;sourcePerimeterSpacing=0;targetPerimeterSpacing=0;startArrow=none;endArrow=none;rounded=0;curved=0;exitX=0.5;exitY=1;exitDx=0;exitDy=0;entryX=0.5;entryY=0;entryDx=0;entryDy=0;" edge="1" parent="Q1rSvpqj_qULE53uYS1T-13" source="Q1rSvpqj_qULE53uYS1T-17" target="Q1rSvpqj_qULE53uYS1T-20">
          <mxGeometry relative="1" as="geometry">
            <mxPoint x="270" y="52" as="sourcePoint" />
            <mxPoint x="120" y="147" as="targetPoint" />
          </mxGeometry>
        </mxCell>
        <mxCell id="Q1rSvpqj_qULE53uYS1T-22" value="&lt;font style=&quot;font-size: 9px;&quot;&gt;Avatar / Position (0,0)&lt;br&gt;Dune / Position (Xk,Yk)&lt;/font&gt;" style="whiteSpace=wrap;html=1;align=center;verticalAlign=middle;treeFolding=1;treeMoving=1;newEdgeStyle={&quot;edgeStyle&quot;:&quot;elbowEdgeStyle&quot;,&quot;startArrow&quot;:&quot;none&quot;,&quot;endArrow&quot;:&quot;none&quot;};" vertex="1" parent="Q1rSvpqj_qULE53uYS1T-13">
          <mxGeometry x="180" y="147" width="100" height="40" as="geometry" />
        </mxCell>
        <mxCell id="Q1rSvpqj_qULE53uYS1T-23" value="" style="edgeStyle=elbowEdgeStyle;elbow=vertical;sourcePerimeterSpacing=0;targetPerimeterSpacing=0;startArrow=none;endArrow=none;rounded=0;curved=0;exitX=0.5;exitY=1;exitDx=0;exitDy=0;" edge="1" parent="Q1rSvpqj_qULE53uYS1T-13" source="Q1rSvpqj_qULE53uYS1T-34" target="Q1rSvpqj_qULE53uYS1T-22">
          <mxGeometry relative="1" as="geometry">
            <mxPoint x="200" y="122.5" as="sourcePoint" />
            <mxPoint x="130" y="147.5" as="targetPoint" />
          </mxGeometry>
        </mxCell>
        <mxCell id="Q1rSvpqj_qULE53uYS1T-24" value="..." style="text;html=1;strokeColor=none;fillColor=none;align=center;verticalAlign=middle;whiteSpace=wrap;rounded=0;" vertex="1" parent="Q1rSvpqj_qULE53uYS1T-13">
          <mxGeometry x="130" y="152" width="60" height="30" as="geometry" />
        </mxCell>
        <mxCell id="Q1rSvpqj_qULE53uYS1T-25" value="&lt;font style=&quot;font-size: 9px;&quot;&gt;Avatar / Position (X,Y)&lt;br&gt;Dune / Position (X1,Y1)&lt;/font&gt;" style="whiteSpace=wrap;html=1;align=center;verticalAlign=middle;treeFolding=1;treeMoving=1;newEdgeStyle={&quot;edgeStyle&quot;:&quot;elbowEdgeStyle&quot;,&quot;startArrow&quot;:&quot;none&quot;,&quot;endArrow&quot;:&quot;none&quot;};" vertex="1" parent="Q1rSvpqj_qULE53uYS1T-13">
          <mxGeometry x="320" y="147" width="100" height="40" as="geometry" />
        </mxCell>
        <mxCell id="Q1rSvpqj_qULE53uYS1T-26" value="&lt;font style=&quot;font-size: 9px;&quot;&gt;Avatar / Position (X,Y)&lt;br&gt;Dune / Position (Xk,Yk)&lt;/font&gt;" style="whiteSpace=wrap;html=1;align=center;verticalAlign=middle;treeFolding=1;treeMoving=1;newEdgeStyle={&quot;edgeStyle&quot;:&quot;elbowEdgeStyle&quot;,&quot;startArrow&quot;:&quot;none&quot;,&quot;endArrow&quot;:&quot;none&quot;};" vertex="1" parent="Q1rSvpqj_qULE53uYS1T-13">
          <mxGeometry x="460" y="147" width="100" height="40" as="geometry" />
        </mxCell>
        <mxCell id="Q1rSvpqj_qULE53uYS1T-27" value="..." style="text;html=1;strokeColor=none;fillColor=none;align=center;verticalAlign=middle;whiteSpace=wrap;rounded=0;" vertex="1" parent="Q1rSvpqj_qULE53uYS1T-13">
          <mxGeometry x="410" y="152" width="60" height="30" as="geometry" />
        </mxCell>
        <mxCell id="Q1rSvpqj_qULE53uYS1T-28" value="" style="edgeStyle=elbowEdgeStyle;elbow=vertical;sourcePerimeterSpacing=0;targetPerimeterSpacing=0;startArrow=none;endArrow=none;rounded=0;curved=0;exitX=0.5;exitY=1;exitDx=0;exitDy=0;" edge="1" parent="Q1rSvpqj_qULE53uYS1T-13" source="Q1rSvpqj_qULE53uYS1T-18" target="Q1rSvpqj_qULE53uYS1T-25">
          <mxGeometry relative="1" as="geometry">
            <mxPoint x="190" y="122.5" as="sourcePoint" />
            <mxPoint x="120" y="147.5" as="targetPoint" />
          </mxGeometry>
        </mxCell>
        <mxCell id="Q1rSvpqj_qULE53uYS1T-29" value="" style="edgeStyle=elbowEdgeStyle;elbow=vertical;sourcePerimeterSpacing=0;targetPerimeterSpacing=0;startArrow=none;endArrow=none;rounded=0;curved=0;exitX=0.5;exitY=1;exitDx=0;exitDy=0;" edge="1" parent="Q1rSvpqj_qULE53uYS1T-13" source="Q1rSvpqj_qULE53uYS1T-18" target="Q1rSvpqj_qULE53uYS1T-26">
          <mxGeometry relative="1" as="geometry">
            <mxPoint x="190" y="122.5" as="sourcePoint" />
            <mxPoint x="260" y="147.5" as="targetPoint" />
          </mxGeometry>
        </mxCell>
        <mxCell id="Q1rSvpqj_qULE53uYS1T-5" value="Grid Size (MxN)" style="rounded=0;whiteSpace=wrap;html=1;" vertex="1" parent="Q1rSvpqj_qULE53uYS1T-13">
          <mxGeometry x="360" width="120" height="20" as="geometry" />
        </mxCell>
        <mxCell id="Q1rSvpqj_qULE53uYS1T-36" value="" style="edgeStyle=elbowEdgeStyle;elbow=vertical;sourcePerimeterSpacing=0;targetPerimeterSpacing=0;startArrow=none;endArrow=none;rounded=0;curved=0;exitX=0.5;exitY=1;exitDx=0;exitDy=0;" edge="1" parent="Q1rSvpqj_qULE53uYS1T-13" source="Q1rSvpqj_qULE53uYS1T-17" target="Q1rSvpqj_qULE53uYS1T-34">
          <mxGeometry relative="1" as="geometry">
            <mxPoint x="280" y="597" as="sourcePoint" />
            <mxPoint x="350" y="622" as="targetPoint" />
            <Array as="points">
              <mxPoint x="190" y="135" />
            </Array>
          </mxGeometry>
        </mxCell>
        <mxCell id="Q1rSvpqj_qULE53uYS1T-34" value="" style="verticalLabelPosition=bottom;verticalAlign=top;html=1;shape=mxgraph.basic.x;fillColor=#FF3333;" vertex="1" parent="Q1rSvpqj_qULE53uYS1T-13">
          <mxGeometry x="220" y="137" width="20" height="15" as="geometry" />
        </mxCell>
        <mxCell id="Q1rSvpqj_qULE53uYS1T-45" value="&lt;font size=&quot;1&quot;&gt;...&lt;/font&gt;" style="whiteSpace=wrap;html=1;align=center;verticalAlign=middle;treeFolding=1;treeMoving=1;newEdgeStyle={&quot;edgeStyle&quot;:&quot;elbowEdgeStyle&quot;,&quot;startArrow&quot;:&quot;none&quot;,&quot;endArrow&quot;:&quot;none&quot;};" vertex="1" parent="Q1rSvpqj_qULE53uYS1T-13">
          <mxGeometry x="16" y="220" width="60" height="10" as="geometry" />
        </mxCell>
        <mxCell id="Q1rSvpqj_qULE53uYS1T-46" value="" style="edgeStyle=elbowEdgeStyle;elbow=vertical;sourcePerimeterSpacing=0;targetPerimeterSpacing=0;startArrow=none;endArrow=none;rounded=0;curved=0;exitX=0.5;exitY=1;exitDx=0;exitDy=0;entryX=0.5;entryY=0;entryDx=0;entryDy=0;" edge="1" parent="Q1rSvpqj_qULE53uYS1T-13" source="Q1rSvpqj_qULE53uYS1T-20" target="Q1rSvpqj_qULE53uYS1T-45">
          <mxGeometry relative="1" as="geometry">
            <mxPoint x="160" y="122" as="sourcePoint" />
            <mxPoint x="80" y="147" as="targetPoint" />
          </mxGeometry>
        </mxCell>
        <mxCell id="Q1rSvpqj_qULE53uYS1T-47" value="&lt;font size=&quot;1&quot;&gt;...&lt;/font&gt;" style="whiteSpace=wrap;html=1;align=center;verticalAlign=middle;treeFolding=1;treeMoving=1;newEdgeStyle={&quot;edgeStyle&quot;:&quot;elbowEdgeStyle&quot;,&quot;startArrow&quot;:&quot;none&quot;,&quot;endArrow&quot;:&quot;none&quot;};" vertex="1" parent="Q1rSvpqj_qULE53uYS1T-13">
          <mxGeometry x="86" y="220" width="60" height="10" as="geometry" />
        </mxCell>
        <mxCell id="Q1rSvpqj_qULE53uYS1T-48" value="" style="edgeStyle=elbowEdgeStyle;elbow=vertical;sourcePerimeterSpacing=0;targetPerimeterSpacing=0;startArrow=none;endArrow=none;rounded=0;curved=0;exitX=0.5;exitY=1;exitDx=0;exitDy=0;entryX=0.5;entryY=0;entryDx=0;entryDy=0;" edge="1" parent="Q1rSvpqj_qULE53uYS1T-13" source="Q1rSvpqj_qULE53uYS1T-20" target="Q1rSvpqj_qULE53uYS1T-47">
          <mxGeometry relative="1" as="geometry">
            <mxPoint x="80" y="187" as="sourcePoint" />
            <mxPoint x="46" y="220" as="targetPoint" />
          </mxGeometry>
        </mxCell>
        <mxCell id="Q1rSvpqj_qULE53uYS1T-49" value="&lt;font size=&quot;1&quot;&gt;...&lt;/font&gt;" style="whiteSpace=wrap;html=1;align=center;verticalAlign=middle;treeFolding=1;treeMoving=1;newEdgeStyle={&quot;edgeStyle&quot;:&quot;elbowEdgeStyle&quot;,&quot;startArrow&quot;:&quot;none&quot;,&quot;endArrow&quot;:&quot;none&quot;};" vertex="1" parent="Q1rSvpqj_qULE53uYS1T-13">
          <mxGeometry x="16" y="250" width="60" height="10" as="geometry" />
        </mxCell>
        <mxCell id="Q1rSvpqj_qULE53uYS1T-50" value="" style="edgeStyle=elbowEdgeStyle;elbow=vertical;sourcePerimeterSpacing=0;targetPerimeterSpacing=0;startArrow=none;endArrow=none;rounded=0;curved=0;exitX=0.5;exitY=1;exitDx=0;exitDy=0;entryX=0.5;entryY=0;entryDx=0;entryDy=0;" edge="1" parent="Q1rSvpqj_qULE53uYS1T-13" source="Q1rSvpqj_qULE53uYS1T-45" target="Q1rSvpqj_qULE53uYS1T-49">
          <mxGeometry relative="1" as="geometry">
            <mxPoint x="80" y="187" as="sourcePoint" />
            <mxPoint x="116" y="220" as="targetPoint" />
          </mxGeometry>
        </mxCell>
        <mxCell id="Q1rSvpqj_qULE53uYS1T-54" value="&lt;font size=&quot;1&quot;&gt;...&lt;/font&gt;" style="whiteSpace=wrap;html=1;align=center;verticalAlign=middle;treeFolding=1;treeMoving=1;newEdgeStyle={&quot;edgeStyle&quot;:&quot;elbowEdgeStyle&quot;,&quot;startArrow&quot;:&quot;none&quot;,&quot;endArrow&quot;:&quot;none&quot;};" vertex="1" parent="Q1rSvpqj_qULE53uYS1T-13">
          <mxGeometry x="305" y="230" width="60" height="10" as="geometry" />
        </mxCell>
        <mxCell id="Q1rSvpqj_qULE53uYS1T-55" value="&lt;font size=&quot;1&quot;&gt;...&lt;/font&gt;" style="whiteSpace=wrap;html=1;align=center;verticalAlign=middle;treeFolding=1;treeMoving=1;newEdgeStyle={&quot;edgeStyle&quot;:&quot;elbowEdgeStyle&quot;,&quot;startArrow&quot;:&quot;none&quot;,&quot;endArrow&quot;:&quot;none&quot;};" vertex="1" parent="Q1rSvpqj_qULE53uYS1T-13">
          <mxGeometry x="375" y="230" width="60" height="10" as="geometry" />
        </mxCell>
        <mxCell id="Q1rSvpqj_qULE53uYS1T-57" value="" style="edgeStyle=elbowEdgeStyle;elbow=vertical;sourcePerimeterSpacing=0;targetPerimeterSpacing=0;startArrow=none;endArrow=none;rounded=0;curved=0;entryX=0.5;entryY=0;entryDx=0;entryDy=0;exitX=0.5;exitY=1;exitDx=0;exitDy=0;" edge="1" parent="Q1rSvpqj_qULE53uYS1T-13" source="Q1rSvpqj_qULE53uYS1T-25" target="Q1rSvpqj_qULE53uYS1T-54">
          <mxGeometry relative="1" as="geometry">
            <mxPoint x="80" y="187" as="sourcePoint" />
            <mxPoint x="46" y="220" as="targetPoint" />
          </mxGeometry>
        </mxCell>
        <mxCell id="Q1rSvpqj_qULE53uYS1T-58" value="" style="edgeStyle=elbowEdgeStyle;elbow=vertical;sourcePerimeterSpacing=0;targetPerimeterSpacing=0;startArrow=none;endArrow=none;rounded=0;curved=0;exitX=0.5;exitY=1;exitDx=0;exitDy=0;entryX=0.5;entryY=0;entryDx=0;entryDy=0;" edge="1" parent="Q1rSvpqj_qULE53uYS1T-13" source="Q1rSvpqj_qULE53uYS1T-25" target="Q1rSvpqj_qULE53uYS1T-55">
          <mxGeometry relative="1" as="geometry">
            <mxPoint x="80" y="187" as="sourcePoint" />
            <mxPoint x="116" y="220" as="targetPoint" />
          </mxGeometry>
        </mxCell>
        <mxCell id="Q1rSvpqj_qULE53uYS1T-60" value="&lt;font size=&quot;1&quot;&gt;...&lt;/font&gt;" style="whiteSpace=wrap;html=1;align=center;verticalAlign=middle;treeFolding=1;treeMoving=1;newEdgeStyle={&quot;edgeStyle&quot;:&quot;elbowEdgeStyle&quot;,&quot;startArrow&quot;:&quot;none&quot;,&quot;endArrow&quot;:&quot;none&quot;};" vertex="1" parent="Q1rSvpqj_qULE53uYS1T-13">
          <mxGeometry x="445" y="230" width="60" height="10" as="geometry" />
        </mxCell>
        <mxCell id="Q1rSvpqj_qULE53uYS1T-61" value="&lt;font size=&quot;1&quot;&gt;...&lt;/font&gt;" style="whiteSpace=wrap;html=1;align=center;verticalAlign=middle;treeFolding=1;treeMoving=1;newEdgeStyle={&quot;edgeStyle&quot;:&quot;elbowEdgeStyle&quot;,&quot;startArrow&quot;:&quot;none&quot;,&quot;endArrow&quot;:&quot;none&quot;};" vertex="1" parent="Q1rSvpqj_qULE53uYS1T-13">
          <mxGeometry x="515" y="230" width="60" height="10" as="geometry" />
        </mxCell>
        <mxCell id="Q1rSvpqj_qULE53uYS1T-62" value="" style="edgeStyle=elbowEdgeStyle;elbow=vertical;sourcePerimeterSpacing=0;targetPerimeterSpacing=0;startArrow=none;endArrow=none;rounded=0;curved=0;entryX=0.5;entryY=0;entryDx=0;entryDy=0;exitX=0.5;exitY=1;exitDx=0;exitDy=0;" edge="1" parent="Q1rSvpqj_qULE53uYS1T-13" source="Q1rSvpqj_qULE53uYS1T-26" target="Q1rSvpqj_qULE53uYS1T-60">
          <mxGeometry relative="1" as="geometry">
            <mxPoint x="370" y="187" as="sourcePoint" />
            <mxPoint x="335" y="230" as="targetPoint" />
          </mxGeometry>
        </mxCell>
        <mxCell id="Q1rSvpqj_qULE53uYS1T-63" value="" style="edgeStyle=elbowEdgeStyle;elbow=vertical;sourcePerimeterSpacing=0;targetPerimeterSpacing=0;startArrow=none;endArrow=none;rounded=0;curved=0;exitX=0.5;exitY=1;exitDx=0;exitDy=0;entryX=0.5;entryY=0;entryDx=0;entryDy=0;" edge="1" parent="Q1rSvpqj_qULE53uYS1T-13" source="Q1rSvpqj_qULE53uYS1T-26" target="Q1rSvpqj_qULE53uYS1T-61">
          <mxGeometry relative="1" as="geometry">
            <mxPoint x="370" y="187" as="sourcePoint" />
            <mxPoint x="405" y="230" as="targetPoint" />
          </mxGeometry>
        </mxCell>
        <mxCell id="Q1rSvpqj_qULE53uYS1T-64" value="&lt;font size=&quot;1&quot;&gt;...&lt;/font&gt;" style="whiteSpace=wrap;html=1;align=center;verticalAlign=middle;treeFolding=1;treeMoving=1;newEdgeStyle={&quot;edgeStyle&quot;:&quot;elbowEdgeStyle&quot;,&quot;startArrow&quot;:&quot;none&quot;,&quot;endArrow&quot;:&quot;none&quot;};" vertex="1" parent="Q1rSvpqj_qULE53uYS1T-13">
          <mxGeometry x="515" y="260" width="60" height="10" as="geometry" />
        </mxCell>
        <mxCell id="Q1rSvpqj_qULE53uYS1T-65" value="" style="edgeStyle=elbowEdgeStyle;elbow=vertical;sourcePerimeterSpacing=0;targetPerimeterSpacing=0;startArrow=none;endArrow=none;rounded=0;curved=0;entryX=0.5;entryY=0;entryDx=0;entryDy=0;" edge="1" parent="Q1rSvpqj_qULE53uYS1T-13" target="Q1rSvpqj_qULE53uYS1T-64">
          <mxGeometry relative="1" as="geometry">
            <mxPoint x="545" y="240" as="sourcePoint" />
            <mxPoint x="475" y="230" as="targetPoint" />
          </mxGeometry>
        </mxCell>
        <mxCell id="Q1rSvpqj_qULE53uYS1T-66" value="&lt;font size=&quot;1&quot;&gt;...&lt;/font&gt;" style="whiteSpace=wrap;html=1;align=center;verticalAlign=middle;treeFolding=1;treeMoving=1;newEdgeStyle={&quot;edgeStyle&quot;:&quot;elbowEdgeStyle&quot;,&quot;startArrow&quot;:&quot;none&quot;,&quot;endArrow&quot;:&quot;none&quot;};" vertex="1" parent="Q1rSvpqj_qULE53uYS1T-13">
          <mxGeometry x="445" y="260" width="60" height="10" as="geometry" />
        </mxCell>
        <mxCell id="Q1rSvpqj_qULE53uYS1T-68" value="" style="rounded=1;whiteSpace=wrap;html=1;strokeWidth=0;fillWeight=4;hachureGap=8;hachureAngle=45;fillColor=#99FF99;sketch=1;" vertex="1" parent="Q1rSvpqj_qULE53uYS1T-13">
          <mxGeometry x="440" y="260" width="65" height="15" as="geometry" />
        </mxCell>
        <mxCell id="Q1rSvpqj_qULE53uYS1T-30" value="" style="shape=flexArrow;endArrow=classic;html=1;rounded=0;" edge="1" parent="1">
          <mxGeometry width="50" height="50" relative="1" as="geometry">
            <mxPoint x="413.5" y="400" as="sourcePoint" />
            <mxPoint x="413.5" y="460" as="targetPoint" />
          </mxGeometry>
        </mxCell>
        <mxCell id="Q1rSvpqj_qULE53uYS1T-37" value="" style="verticalLabelPosition=bottom;verticalAlign=top;html=1;shape=mxgraph.basic.x;fillColor=#FF3333;" vertex="1" parent="1">
          <mxGeometry x="124" y="760" width="20" height="15" as="geometry" />
        </mxCell>
        <mxCell id="Q1rSvpqj_qULE53uYS1T-39" value="A pruning mechanism that removes some branches that haven&#39;t seen any improvements over multiple steps." style="text;html=1;strokeColor=none;fillColor=none;align=center;verticalAlign=middle;whiteSpace=wrap;rounded=0;" vertex="1" parent="1">
          <mxGeometry x="144" y="765" width="240" height="30" as="geometry" />
        </mxCell>
        <mxCell id="Q1rSvpqj_qULE53uYS1T-40" value="&lt;i&gt;Construct the graph by length order.&lt;/i&gt;" style="text;html=1;strokeColor=none;fillColor=none;align=center;verticalAlign=middle;whiteSpace=wrap;rounded=0;" vertex="1" parent="1">
          <mxGeometry x="280" y="400" width="121" height="30" as="geometry" />
        </mxCell>
        <mxCell id="Q1rSvpqj_qULE53uYS1T-41" value="&lt;b&gt;Step One&lt;/b&gt;" style="text;html=1;strokeColor=none;fillColor=none;align=center;verticalAlign=middle;whiteSpace=wrap;rounded=0;" vertex="1" parent="1">
          <mxGeometry x="50" y="540" width="60" height="30" as="geometry" />
        </mxCell>
        <mxCell id="Q1rSvpqj_qULE53uYS1T-42" value="&lt;b&gt;Step Two&lt;/b&gt;" style="text;html=1;strokeColor=none;fillColor=none;align=center;verticalAlign=middle;whiteSpace=wrap;rounded=0;" vertex="1" parent="1">
          <mxGeometry x="50" y="600" width="60" height="30" as="geometry" />
        </mxCell>
        <mxCell id="Q1rSvpqj_qULE53uYS1T-43" value="&lt;b&gt;Step K&lt;/b&gt;" style="text;html=1;strokeColor=none;fillColor=none;align=center;verticalAlign=middle;whiteSpace=wrap;rounded=0;" vertex="1" parent="1">
          <mxGeometry x="50" y="700" width="60" height="30" as="geometry" />
        </mxCell>
        <mxCell id="Q1rSvpqj_qULE53uYS1T-44" value="&lt;b&gt;...&lt;/b&gt;" style="text;html=1;strokeColor=none;fillColor=none;align=center;verticalAlign=middle;whiteSpace=wrap;rounded=0;" vertex="1" parent="1">
          <mxGeometry x="50" y="660" width="60" height="30" as="geometry" />
        </mxCell>
        <mxCell id="Q1rSvpqj_qULE53uYS1T-67" value="" style="edgeStyle=elbowEdgeStyle;elbow=vertical;sourcePerimeterSpacing=0;targetPerimeterSpacing=0;startArrow=none;endArrow=none;rounded=0;curved=0;entryX=0.5;entryY=0;entryDx=0;entryDy=0;" edge="1" parent="1" target="Q1rSvpqj_qULE53uYS1T-66">
          <mxGeometry relative="1" as="geometry">
            <mxPoint x="669" y="700" as="sourcePoint" />
            <mxPoint x="669" y="720" as="targetPoint" />
          </mxGeometry>
        </mxCell>
        <mxCell id="Q1rSvpqj_qULE53uYS1T-69" value="" style="rounded=1;whiteSpace=wrap;html=1;strokeWidth=0;fillWeight=4;hachureGap=8;hachureAngle=45;fillColor=#99FF99;sketch=1;" vertex="1" parent="1">
          <mxGeometry x="100" y="820" width="65" height="15" as="geometry" />
        </mxCell>
        <mxCell id="Q1rSvpqj_qULE53uYS1T-70" value="Select the node (crossword description) with the best score. The score is a function of the number of words and the number of crossings." style="text;html=1;strokeColor=none;fillColor=none;align=center;verticalAlign=middle;whiteSpace=wrap;rounded=0;" vertex="1" parent="1">
          <mxGeometry x="180" y="812.5" width="390" height="30" as="geometry" />
        </mxCell>
      </root>
    </mxGraphModel>
  </diagram>
</mxfile>
